<svg xmlns="http://www.w3.org/2000/svg" xmlns:xlink="http://www.w3.org/1999/xlink" width="1080" zoomAndPan="magnify" viewBox="0 0 810 809.999993" height="1080" preserveAspectRatio="xMidYMid meet" version="1.0"><defs><clipPath id="id1"><path d="M 174.1875 149.8125 L 351 149.8125 L 351 299.0625 L 174.1875 299.0625 Z M 174.1875 149.8125 " clip-rule="nonzero"/></clipPath></defs><g clip-path="url(#id1)"><path fill="#621611" d="M 236.488281 223.402344 L 268.316406 232.199219 C 269.421875 232.5 270.375 233.265625 270.917969 234.328125 C 271.511719 235.46875 271.574219 236.78125 271.167969 237.921875 C 270.546875 239.609375 268.9375 240.75 267.144531 240.75 L 244.285156 240.34375 C 242.789062 240.234375 241.382812 241.234375 240.808594 242.65625 C 240.246094 244.097656 240.621094 245.707031 241.757812 246.738281 L 262.171875 265.320312 C 263.152344 266.242188 264.589844 266.539062 265.835938 266.054688 L 337.085938 240.859375 C 339.191406 240.125 341.496094 241.046875 342.574219 243.0625 C 342.964844 243.828125 343.179688 244.644531 343.179688 245.410156 C 343.179688 247.238281 342.199219 248.894531 340.671875 249.707031 L 260.96875 291.691406 L 199.09375 283.890625 L 199.09375 239.984375 Z M 235.972656 215.835938 L 235.972656 215.851562 C 235.566406 215.882812 235.148438 215.976562 234.773438 216.148438 L 194.617188 233.921875 L 178.527344 233.921875 C 176.515625 233.921875 174.859375 235.578125 174.859375 237.59375 L 174.859375 287.109375 C 174.859375 289.125 176.515625 290.785156 178.527344 290.785156 L 195.320312 290.785156 L 261.1875 299.097656 C 261.328125 299.097656 261.484375 299.144531 261.625 299.144531 C 262.21875 299.144531 262.796875 298.988281 263.339844 298.707031 L 343.992188 256.195312 C 348.03125 254.175781 350.511719 250.066406 350.511719 245.488281 C 350.511719 243.53125 349.996094 241.515625 349.089844 239.71875 C 346.347656 234.484375 340.25 232.058594 334.699219 234 L 265.507812 258.460938 L 253.90625 247.894531 L 267.191406 248.128906 C 272.011719 248.128906 276.378906 245.035156 278.0625 240.453125 C 279.199219 237.34375 278.964844 233.890625 277.4375 230.964844 C 275.972656 228.089844 273.335938 225.980469 270.296875 225.136719 L 237.222656 215.960938 C 236.816406 215.851562 236.394531 215.804688 235.972656 215.835938 Z M 279.152344 149.828125 C 272.929688 149.828125 267.066406 152.253906 262.6875 156.644531 C 253.609375 165.742188 253.609375 180.527344 262.6875 189.65625 L 291.847656 218.820312 C 292.578125 219.554688 293.5 219.882812 294.449219 219.882812 C 295.402344 219.882812 296.304688 219.507812 297.039062 218.820312 L 326.183594 189.625 C 335.246094 180.527344 335.246094 165.742188 326.183594 156.644531 C 321.785156 152.253906 315.921875 149.828125 309.71875 149.828125 C 304.023438 149.828125 298.660156 151.847656 294.417969 155.550781 C 290.179688 151.847656 284.828125 149.828125 279.152344 149.828125 " fill-opacity="1" fill-rule="nonzero"/></g></svg>